<svg xmlns="http://www.w3.org/2000/svg" width="16" height="16" viewBox="0 0 16 16" fill="none">
<path d="M10.7565 5.00405C10.8947 4.87173 11.0787 4.79857 11.2695 4.80002C11.4604 4.80148 11.6433 4.87742 11.7795 5.01183C11.9157 5.14624 11.9947 5.3286 11.9997 5.52044C12.0048 5.71228 11.9355 5.89858 11.8065 6.04004L7.89085 10.9635C7.82352 11.0364 7.74226 11.0949 7.65192 11.1355C7.56158 11.1762 7.46403 11.198 7.36509 11.1999C7.26614 11.2017 7.16785 11.1835 7.07608 11.1463C6.98431 11.109 6.90094 11.0536 6.83097 10.9832L4.23426 8.37252C4.16195 8.30477 4.10395 8.22307 4.06372 8.1323C4.02349 8.04153 4.00186 7.94354 4.00011 7.84418C3.99837 7.74482 4.01655 7.64613 4.05357 7.55398C4.09059 7.46184 4.14569 7.37814 4.21558 7.30787C4.28547 7.2376 4.36872 7.1822 4.46037 7.14499C4.55202 7.10777 4.65019 7.08949 4.74901 7.09124C4.84784 7.093 4.9453 7.11474 5.03559 7.15519C5.12588 7.19564 5.20713 7.25395 5.27452 7.32665L7.32951 9.39174L10.7378 5.02575C10.744 5.01816 10.7505 5.01091 10.7574 5.00405H10.7565Z" fill="#F8F8F8"/>
</svg>